{"title":"Line Of Duty S02","uid":9848205,"size":2526504854,"categoryP":"video","categoryS":"tv_shows","magnet":"?xt=urn:btih:aaf281dc357e00fce1e777c6828df243b63419f0&amp;dn=Line+Of+Duty+S02&amp;tr=udp%3A%2F%2Ftracker.openbittorrent.com%3A80&amp;tr=udp%3A%2F%2Fopen.demonii.com%3A1337&amp;tr=udp%3A%2F%2Ftracker.coppersurfer.tk%3A6969&amp;tr=udp%3A%2F%2Fexodus.desync.com%3A6969","seeders":23,"leechers":4,"uploader":"RedBaron58","files":6,"time":1396109469,"description":"Line of Duty Season 2 (2014) 6 part 1 hour episodes x264\n\n  &lt;a href=&quot;\nhttp://www.imdb.com/title/tt2303687/&quot; rel=&quot;nofollow&quot; target=&quot;_NEW&quot;&gt;\nhttp://www.imdb.com/title/tt2303687/&lt;/a&gt;\n\n\nPlease be patient My upload speed is limited, but I am online most the time and during the night.\nThank you for your kind comments and thumbs ups on my other torrents, your feedback is welcome.\n\n\nAbout the Series:\nA police convoy escorting a civilian under a witness protection scheme is attacked, the witness hospitalized \nand all the police officers killed, except Inspector Lindsay Denton, who organized the operation \nat very short notice and who only informed DCC Dryden of the route. \nTed Hastings asks Steve and Kate to interview her but Kate pulls out, claiming one of the dead officers, \nJayne Akers, was a friend although she has been having an affair with Jayne's husband Rich\n\n\nI hope you enjoy.\n\n\nTechnical:  (All 6 episodes encoded to similar settings)\n\nGeneral\nComplete name                            : G:Line Of Duty S02Line Of Duty S02E01 x264 RB58.mp4\nFormat                                   : MPEG-4\nFormat profile                           : Base Media / Version 2\nCodec ID                                 : mp42\nFile size                                : 402 MiB\nDuration                                 : 58mn 56s\nOverall bit rate mode                    : Variable\nOverall bit rate                         : 954 Kbps\nEncoded date                             : UTC 2014-03-21 18:50:00\nTagged date                              : UTC 2014-03-21 19:08:12\nWriting application                      : HandBrake 0.9.8 2012071700\n\nVideo\nID                                       : 1\nFormat                                   : AVC\nFormat/Info                              : Advanced Video Codec\nFormat profile                           : &lt;a class=&quot;__cf_email__&quot; href=&quot;/cdn-cgi/l/email-protection&quot; data-cfemail=&quot;94d9f5fdfad4d8a7baa4&quot;&gt;[email&amp;#160;protected]&lt;/a&gt;&lt;script cf-hash='f9e31' type=&quot;text/javascript&quot;&gt;\n/* &lt;![CDATA[ */!function(){try{var t=&quot;currentScript&quot;in document?document.currentScript:function(){for(var t=document.getElementsByTagName(&quot;script&quot;),e=t.length;e--;)if(t[e].getAttribute(&quot;cf-hash&quot;))return t[e]}();if(t&amp;&amp;t.previousSibling){var e,r,n,i,c=t.previousSibling,a=c.getAttribute(&quot;data-cfemail&quot;);if(a){for(e=&quot;&quot;,r=parseInt(a.substr(0,2),16),n=2;a.length-n;n+=2)i=parseInt(a.substr(n,2),16)^r,e+=String.fromCharCode(i);e=document.createTextNode(e),c.parentNode.replaceChild(e,c)}}}catch(u){}}();/* ]]&gt; */&lt;/script&gt;\nFormat settings, CABAC                   : Yes\nFormat settings, ReFrames                : 4 frames\nCodec ID                                 : avc1\nCodec ID/Info                            : Advanced Video Coding\nDuration                                 : 58mn 56s\nBit rate mode                            : Variable\nBit rate                                 : 800 Kbps\nWidth                                    : 640 pixels\nHeight                                   : 360 pixels\nDisplay aspect ratio                     : 16:9\nFrame rate mode                          : Constant\nFrame rate                               : 25.000 fps\nColor space                              : YUV\nChroma subsampling                       : 4:2:0\nBit depth                                : 8 bits\nScan type                                : Progressive\nBits/(Pixel*Frame)                       : 0.139\nStream size                              : 337 MiB (84%)\nWriting library                          : x264 core 120\nEncoding settings                        : cabac=1 / ref=1 / deblock=1:0:0\nEncoded date                             : UTC 2014-03-21 18:50:00\nTagged date                              : UTC 2014-03-21 19:08:12\nColor primaries                          : BT.709\nTransfer characteristics                 : BT.709\nMatrix coefficients                      : BT.709\n\nAudio\nID                                       : 2\nFormat                                   : MPEG Audio\nFormat version                           : Version 1\nFormat profile                           : Layer 3\nCodec ID                                 : 69\nDuration                                 : 58mn 55s\nBit rate mode                            : Variable\nBit rate                                 : 149 Kbps\nMaximum bit rate                         : 177 Kbps\nChannel(s)                               : 2 channels\nSampling rate                            : 48.0 KHz\nCompression mode                         : Lossy\nDelay relative to video                  : 80ms\nStream size                              : 63.0 MiB (16%)\nEncoded date                             : UTC 2014-03-21 18:50:00\nTagged date                              : UTC 2014-03-21 19:08:11","torrent":{"xt":"urn:btih:aaf281dc357e00fce1e777c6828df243b63419f0","amp;dn":"Line+Of+Duty+S02","amp;tr":["udp%3A%2F%2Ftracker.openbittorrent.com%3A80","udp%3A%2F%2Fopen.demonii.com%3A1337","udp%3A%2F%2Ftracker.coppersurfer.tk%3A6969","udp%3A%2F%2Fexodus.desync.com%3A6969"],"infoHash":"aaf281dc357e00fce1e777c6828df243b63419f0","infoHashBuffer":{"type":"Buffer","data":[170,242,129,220,53,126,0,252,225,231,119,198,130,141,242,67,182,52,25,240]},"announce":[],"urlList":[]}}